<?xml version="1.0" encoding="UTF-8" standalone="no"?>
<svg
   width="756"
   zoomAndPan="magnify"
   viewBox="0 0 567 567.000005"
   height="756"
   preserveAspectRatio="xMidYMid meet"
   version="1.0"
   id="svg47"
   sodipodi:docname="apiops-cycles-logo2025-black.svg"
   inkscape:version="1.3.2 (091e20e, 2023-11-25, custom)"
   xmlns:inkscape="http://www.inkscape.org/namespaces/inkscape"
   xmlns:sodipodi="http://sodipodi.sourceforge.net/DTD/sodipodi-0.dtd"
   xmlns="http://www.w3.org/2000/svg"
   xmlns:svg="http://www.w3.org/2000/svg">
  <sodipodi:namedview
     id="namedview47"
     pagecolor="#ffffff"
     bordercolor="#000000"
     borderopacity="0.25"
     inkscape:showpageshadow="2"
     inkscape:pageopacity="0.0"
     inkscape:pagecheckerboard="true"
     inkscape:deskcolor="#d1d1d1"
     inkscape:zoom="1.0859788"
     inkscape:cx="378.00001"
     inkscape:cy="377.07918"
     inkscape:window-width="1920"
     inkscape:window-height="1017"
     inkscape:window-x="-8"
     inkscape:window-y="-8"
     inkscape:window-maximized="1"
     inkscape:current-layer="svg47" />
  <defs
     id="defs5">
    <g
       id="g1" />
    <clipPath
       id="ecfbc6fc50">
      <path
         d="M 0.5 0 L 566.5 0 L 566.5 566 L 0.5 566 Z M 0.5 0 "
         clip-rule="nonzero"
         id="path1" />
    </clipPath>
    <clipPath
       id="4ee1efe14e">
      <path
         d="M 38 30 L 528.191406 30 L 528.191406 490 L 38 490 Z M 38 30 "
         clip-rule="nonzero"
         id="path2" />
    </clipPath>
    <clipPath
       id="631ef147b9">
      <path
         d="M 380 187 L 464 187 L 464 283 L 380 283 Z M 380 187 "
         clip-rule="nonzero"
         id="path3" />
    </clipPath>
    <clipPath
       id="dc9e064c61">
      <path
         d="M 463.609375 187.988281 L 458.230469 287.417969 L 379.734375 283.167969 L 385.113281 183.742188 Z M 463.609375 187.988281 "
         clip-rule="nonzero"
         id="path4" />
    </clipPath>
    <clipPath
       id="06f743e2a4">
      <path
         d="M 379.476562 282.957031 L 384.855469 183.527344 L 463.351562 187.773438 L 457.972656 287.203125 Z M 379.476562 282.957031 "
         clip-rule="nonzero"
         id="path5" />
    </clipPath>
  </defs>
  <g
     clip-path="url(#4ee1efe14e)"
     id="g8"
     style="fill:#1a3987;fill-opacity:1">
    <path
       fill="#ffffff"
       d="M 116.617188 434.636719 C 158.089844 470.828125 212.988281 490.789062 267.996094 489.472656 C 191.457031 488.058594 119.761719 445.710938 81.96875 379.109375 C 39.125 305.152344 45.558594 208.792969 98.371094 141.828125 C 178.515625 39.050781 332.074219 32.734375 418.132812 131.542969 C 443.988281 161.492188 460.847656 199.007812 465.605469 238.269531 C 465.902344 240.664062 466.144531 243.0625 466.339844 245.464844 L 451.488281 245.464844 L 489.855469 311.917969 L 528.222656 245.464844 L 511.15625 245.464844 C 510.667969 240.90625 510.058594 236.363281 509.300781 231.84375 C 499.640625 173.074219 467.292969 118.582031 420.492188 81.808594 C 314.558594 -1.6875 159.800781 18.851562 81.21875 129.085938 C 13.042969 224.371094 27.914062 357.96875 116.617188 434.636719 "
       fill-opacity="1"
       fill-rule="nonzero"
       id="path8"
       style="fill:#1a3987;fill-opacity:1" />
  </g>
  <g
     fill="#ffffff"
     fill-opacity="1"
     id="g11"
     style="fill:#1a3987;fill-opacity:1">
    <g
       transform="translate(143.588611, 343.581525)"
       id="g10"
       style="fill:#1a3987;fill-opacity:1">
      <g
         id="g9"
         style="fill:#1a3987;fill-opacity:1">
        <path
           d="M 34.234375 1.171875 C 28.742188 1.171875 23.773438 0.015625 19.328125 -2.296875 C 14.878906 -4.617188 11.363281 -7.84375 8.78125 -11.96875 C 6.195312 -16.09375 4.90625 -20.832031 4.90625 -26.1875 C 4.90625 -31.550781 6.128906 -36.273438 8.578125 -40.359375 C 11.035156 -44.453125 14.320312 -47.660156 18.4375 -49.984375 C 22.5625 -52.304688 27.175781 -53.46875 32.28125 -53.46875 C 36.207031 -53.46875 39.9375 -52.78125 43.46875 -51.40625 C 47 -50.03125 49.972656 -47.9375 52.390625 -45.125 L 49.546875 -42.390625 C 47.515625 -44.671875 45.039062 -46.429688 42.125 -47.671875 C 39.21875 -48.921875 35.9375 -49.546875 32.28125 -49.546875 C 28.03125 -49.546875 24.140625 -48.5625 20.609375 -46.59375 C 17.078125 -44.632812 14.28125 -41.90625 12.21875 -38.40625 C 10.15625 -34.90625 9.125 -30.832031 9.125 -26.1875 C 9.125 -21.613281 10.234375 -17.5625 12.453125 -14.03125 C 14.679688 -10.5 17.691406 -7.734375 21.484375 -5.734375 C 25.273438 -3.742188 29.523438 -2.75 34.234375 -2.75 C 38.097656 -2.75 41.628906 -3.453125 44.828125 -4.859375 C 48.035156 -6.265625 51.175781 -8.113281 54.25 -10.40625 L 54.25 -5.59375 C 51.4375 -3.4375 48.363281 -1.769531 45.03125 -0.59375 C 41.695312 0.582031 38.097656 1.171875 34.234375 1.171875 Z M 34.234375 1.171875 "
           id="path9"
           style="fill:#1a3987;fill-opacity:1" />
      </g>
    </g>
  </g>
  <g
     fill="#ffffff"
     fill-opacity="1"
     id="g14"
     style="fill:#1a3987;fill-opacity:1">
    <g
       transform="translate(200.977362, 343.581525)"
       id="g13"
       style="fill:#1a3987;fill-opacity:1">
      <g
         id="g12"
         style="fill:#1a3987;fill-opacity:1">
        <path
           d="M 26.6875 23.15625 C 24.988281 23.15625 23.039062 22.988281 20.84375 22.65625 C 18.65625 22.332031 16.460938 21.910156 14.265625 21.390625 C 12.078125 20.867188 10.101562 20.3125 8.34375 19.71875 L 9.421875 15.59375 C 11.972656 16.582031 14.847656 17.398438 18.046875 18.046875 C 21.253906 18.703125 24.164062 19.03125 26.78125 19.03125 C 31.289062 19.03125 35.410156 18.3125 39.140625 16.875 C 42.867188 15.4375 45.859375 13.113281 48.109375 9.90625 C 50.367188 6.707031 51.5 2.519531 51.5 -2.65625 L 51.5 -11.28125 L 51.015625 -11.28125 C 49.054688 -7.488281 46.273438 -4.460938 42.671875 -2.203125 C 39.078125 0.046875 35.085938 1.171875 30.703125 1.171875 C 26.191406 1.171875 22.203125 0.160156 18.734375 -1.859375 C 15.273438 -3.890625 12.5625 -6.769531 10.59375 -10.5 C 8.632812 -14.226562 7.65625 -18.644531 7.65625 -23.75 L 7.65625 -52.390625 L 11.875 -52.390625 L 11.875 -23.84375 C 11.875 -19.519531 12.722656 -15.789062 14.421875 -12.65625 C 16.117188 -9.519531 18.472656 -7.097656 21.484375 -5.390625 C 24.492188 -3.691406 27.894531 -2.84375 31.6875 -2.84375 C 35.351562 -2.84375 38.6875 -3.738281 41.6875 -5.53125 C 44.695312 -7.332031 47.082031 -9.800781 48.84375 -12.9375 C 50.613281 -16.082031 51.5 -19.71875 51.5 -23.84375 L 51.5 -52.390625 L 55.71875 -52.390625 L 55.71875 -2.65625 C 55.71875 3.300781 54.394531 8.191406 51.75 12.015625 C 49.101562 15.847656 45.585938 18.660156 41.203125 20.453125 C 36.816406 22.253906 31.976562 23.15625 26.6875 23.15625 Z M 26.6875 23.15625 "
           id="path11"
           style="fill:#1a3987;fill-opacity:1" />
      </g>
    </g>
  </g>
  <g
     fill="#ffffff"
     fill-opacity="1"
     id="g17"
     style="fill:#1a3987;fill-opacity:1">
    <g
       transform="translate(264.350249, 343.581525)"
       id="g16"
       style="fill:#1a3987;fill-opacity:1">
      <g
         id="g15"
         style="fill:#1a3987;fill-opacity:1">
        <path
           d="M 34.234375 1.171875 C 28.742188 1.171875 23.773438 0.015625 19.328125 -2.296875 C 14.878906 -4.617188 11.363281 -7.84375 8.78125 -11.96875 C 6.195312 -16.09375 4.90625 -20.832031 4.90625 -26.1875 C 4.90625 -31.550781 6.128906 -36.273438 8.578125 -40.359375 C 11.035156 -44.453125 14.320312 -47.660156 18.4375 -49.984375 C 22.5625 -52.304688 27.175781 -53.46875 32.28125 -53.46875 C 36.207031 -53.46875 39.9375 -52.78125 43.46875 -51.40625 C 47 -50.03125 49.972656 -47.9375 52.390625 -45.125 L 49.546875 -42.390625 C 47.515625 -44.671875 45.039062 -46.429688 42.125 -47.671875 C 39.21875 -48.921875 35.9375 -49.546875 32.28125 -49.546875 C 28.03125 -49.546875 24.140625 -48.5625 20.609375 -46.59375 C 17.078125 -44.632812 14.28125 -41.90625 12.21875 -38.40625 C 10.15625 -34.90625 9.125 -30.832031 9.125 -26.1875 C 9.125 -21.613281 10.234375 -17.5625 12.453125 -14.03125 C 14.679688 -10.5 17.691406 -7.734375 21.484375 -5.734375 C 25.273438 -3.742188 29.523438 -2.75 34.234375 -2.75 C 38.097656 -2.75 41.628906 -3.453125 44.828125 -4.859375 C 48.035156 -6.265625 51.175781 -8.113281 54.25 -10.40625 L 54.25 -5.59375 C 51.4375 -3.4375 48.363281 -1.769531 45.03125 -0.59375 C 41.695312 0.582031 38.097656 1.171875 34.234375 1.171875 Z M 34.234375 1.171875 "
           id="path14"
           style="fill:#1a3987;fill-opacity:1" />
      </g>
    </g>
  </g>
  <g
     fill="#ffffff"
     fill-opacity="1"
     id="g20"
     style="fill:#1a3987;fill-opacity:1">
    <g
       transform="translate(321.739, 343.581525)"
       id="g19"
       style="fill:#1a3987;fill-opacity:1">
      <g
         id="g18"
         style="fill:#1a3987;fill-opacity:1">
        <path
           d="M 7.65625 0 L 7.65625 -76.421875 L 11.875 -76.421875 L 11.875 0 Z M 7.65625 0 "
           id="path17"
           style="fill:#1a3987;fill-opacity:1" />
      </g>
    </g>
  </g>
  <g
     fill="#ffffff"
     fill-opacity="1"
     id="g23"
     style="fill:#1a3987;fill-opacity:1">
    <g
       transform="translate(341.260988, 343.581525)"
       id="g22"
       style="fill:#1a3987;fill-opacity:1">
      <g
         id="g21"
         style="fill:#1a3987;fill-opacity:1">
        <path
           d="M 33.265625 1.171875 C 27.566406 1.171875 22.59375 0.015625 18.34375 -2.296875 C 14.09375 -4.617188 10.789062 -7.84375 8.4375 -11.96875 C 6.082031 -16.09375 4.90625 -20.832031 4.90625 -26.1875 C 4.90625 -31.550781 6.128906 -36.273438 8.578125 -40.359375 C 11.035156 -44.453125 14.320312 -47.660156 18.4375 -49.984375 C 22.5625 -52.304688 27.175781 -53.46875 32.28125 -53.46875 C 37.382812 -53.46875 42.007812 -52.304688 46.15625 -49.984375 C 50.3125 -47.660156 53.597656 -44.453125 56.015625 -40.359375 C 58.441406 -36.273438 59.65625 -31.550781 59.65625 -26.1875 L 59.65625 -24.328125 L 9.21875 -24.328125 C 9.476562 -20.078125 10.640625 -16.316406 12.703125 -13.046875 C 14.765625 -9.773438 17.546875 -7.238281 21.046875 -5.4375 C 24.546875 -3.644531 28.617188 -2.75 33.265625 -2.75 C 37.316406 -2.75 41.171875 -3.5 44.828125 -5 C 48.492188 -6.507812 51.601562 -8.765625 54.15625 -11.765625 L 56.90625 -8.53125 C 53.894531 -5.132812 50.328125 -2.664062 46.203125 -1.125 C 42.085938 0.40625 37.773438 1.171875 33.265625 1.171875 Z M 9.21875 -28.15625 L 55.328125 -28.15625 C 55.066406 -32.40625 53.875 -36.132812 51.75 -39.34375 C 49.625 -42.550781 46.875 -45.050781 43.5 -46.84375 C 40.132812 -48.644531 36.394531 -49.546875 32.28125 -49.546875 C 28.21875 -49.546875 24.503906 -48.644531 21.140625 -46.84375 C 17.773438 -45.050781 15.03125 -42.550781 12.90625 -39.34375 C 10.78125 -36.132812 9.550781 -32.40625 9.21875 -28.15625 Z M 9.21875 -28.15625 "
           id="path20"
           style="fill:#1a3987;fill-opacity:1" />
      </g>
    </g>
  </g>
  <g
     fill="#ffffff"
     fill-opacity="1"
     id="g26"
     style="fill:#1a3987;fill-opacity:1">
    <g
       transform="translate(405.811067, 343.581525)"
       id="g25"
       style="fill:#1a3987;fill-opacity:1">
      <g
         id="g24"
         style="fill:#1a3987;fill-opacity:1">
        <path
           d="M 24.328125 1.171875 C 20.210938 1.171875 16.367188 0.519531 12.796875 -0.78125 C 9.234375 -2.09375 6.144531 -3.695312 3.53125 -5.59375 L 5.203125 -9.03125 C 7.492188 -7.195312 10.269531 -5.640625 13.53125 -4.359375 C 16.800781 -3.085938 20.335938 -2.453125 24.140625 -2.453125 C 28.316406 -2.453125 31.613281 -3.382812 34.03125 -5.25 C 36.457031 -7.113281 37.671875 -9.515625 37.671875 -12.453125 C 37.671875 -15.535156 36.65625 -18.070312 34.625 -20.0625 C 32.601562 -22.0625 28.710938 -23.648438 22.953125 -24.828125 C 16.679688 -26.128906 12.234375 -28.070312 9.609375 -30.65625 C 6.992188 -33.238281 5.6875 -36.425781 5.6875 -40.21875 C 5.6875 -42.644531 6.453125 -44.851562 7.984375 -46.84375 C 9.523438 -48.84375 11.671875 -50.445312 14.421875 -51.65625 C 17.171875 -52.863281 20.375 -53.46875 24.03125 -53.46875 C 27.101562 -53.46875 29.832031 -53.207031 32.21875 -52.6875 C 34.613281 -52.164062 36.859375 -51.507812 38.953125 -50.71875 L 38.953125 -46.796875 C 36.984375 -47.648438 34.769531 -48.367188 32.3125 -48.953125 C 29.863281 -49.546875 27.070312 -49.84375 23.9375 -49.84375 C 19.75 -49.84375 16.363281 -48.894531 13.78125 -47 C 11.195312 -45.101562 9.90625 -42.84375 9.90625 -40.21875 C 9.90625 -38.457031 10.3125 -36.835938 11.125 -35.359375 C 11.945312 -33.890625 13.40625 -32.582031 15.5 -31.4375 C 17.59375 -30.300781 20.601562 -29.304688 24.53125 -28.453125 C 30.9375 -27.078125 35.429688 -25.097656 38.015625 -22.515625 C 40.597656 -19.929688 41.890625 -16.613281 41.890625 -12.5625 C 41.890625 -8.632812 40.300781 -5.363281 37.125 -2.75 C 33.957031 -0.132812 29.691406 1.171875 24.328125 1.171875 Z M 24.328125 1.171875 "
           id="path23"
           style="fill:#1a3987;fill-opacity:1" />
      </g>
    </g>
  </g>
  <g
     fill="#ffffff"
     fill-opacity="1"
     id="g29"
     style="fill:#1a3987;fill-opacity:1">
    <g
       transform="translate(103.17356,271.30287)"
       id="g28"
       style="fill:#1a3987;fill-opacity:1">
      <g
         id="g27"
         style="fill:#1a3987;fill-opacity:1">
        <path
           d="m 31.96875,1.1875 c -4.980469,0 -9.507812,-1.1640625 -13.578125,-3.484375 -4.0625,-2.332031 -7.292969,-5.566406 -9.6875,-9.703125 -2.398437,-4.132812 -3.59375,-8.890625 -3.59375,-14.265625 0,-5.375 1.195313,-10.109375 3.59375,-14.203125 2.394531,-4.101562 5.625,-7.316406 9.6875,-9.640625 4.070313,-2.332031 8.597656,-3.5 13.578125,-3.5 5.1875,0 9.875,1.261719 14.0625,3.78125 4.195312,2.523437 7.414062,5.980469 9.65625,10.375 h 0.578125 L 57.84375,-52.53125 h 2.265625 V 0 H 55.875 V -12.296875 H 55.28125 C 52.988281,-8.097656 49.789062,-4.800781 45.6875,-2.40625 41.59375,-0.0078125 37.019531,1.1875 31.96875,1.1875 Z M 32.5625,-2.75 c 4.332031,0 8.25,-1 11.75,-3 3.507812,-2 6.296875,-4.769531 8.359375,-8.3125 2.070313,-3.539062 3.109375,-7.609375 3.109375,-12.203125 0,-4.65625 -1.039062,-8.738281 -3.109375,-12.25 -2.0625,-3.507813 -4.851563,-6.242187 -8.359375,-8.203125 -3.5,-1.96875 -7.417969,-2.953125 -11.75,-2.953125 -4.261719,0 -8.148438,0.984375 -11.65625,2.953125 -3.511719,1.960938 -6.320312,4.695312 -8.421875,8.203125 -2.09375,3.511719 -3.140625,7.59375 -3.140625,12.25 0,4.59375 1.03125,8.664063 3.09375,12.203125 2.070312,3.542969 4.878906,6.3125 8.421875,8.3125 3.539063,2 7.441406,3 11.703125,3 z m 0,0"
           id="path26"
           style="fill:#1a3987;fill-opacity:1" />
      </g>
    </g>
  </g>
  <g
     fill="#ffffff"
     fill-opacity="1"
     id="g32"
     style="fill:#1a3987;fill-opacity:1">
    <g
       transform="translate(170.95207,271.30287)"
       id="g31"
       style="fill:#1a3987;fill-opacity:1">
      <g
         id="g30"
         style="fill:#1a3987;fill-opacity:1">
        <path
           d="M 7.671875,21.734375 V -52.53125 H 9.9375 l 1.578125,13.078125 H 12 c 2.289062,-4.394531 5.535156,-7.851563 9.734375,-10.375 4.195313,-2.519531 8.890625,-3.78125 14.078125,-3.78125 4.976562,0 9.5,1.167969 13.5625,3.5 4.070312,2.324219 7.304688,5.539063 9.703125,9.640625 2.394531,4.09375 3.59375,8.828125 3.59375,14.203125 0,5.375 -1.199219,10.132813 -3.59375,14.265625 C 56.679688,-7.863281 53.445312,-4.628906 49.375,-2.296875 45.3125,0.0234375 40.789062,1.1875 35.8125,1.1875 30.820312,1.1875 26.257812,-0.0078125 22.125,-2.40625 18,-4.800781 14.789062,-8.066406 12.5,-12.203125 h -0.59375 v 33.9375 z M 35.21875,-2.75 c 4.257812,0 8.144531,-1 11.65625,-3 3.507812,-2 6.296875,-4.769531 8.359375,-8.3125 2.070313,-3.539062 3.109375,-7.609375 3.109375,-12.203125 0,-4.65625 -1.039062,-8.738281 -3.109375,-12.25 -2.0625,-3.507813 -4.851563,-6.242187 -8.359375,-8.203125 -3.511719,-1.96875 -7.398438,-2.953125 -11.65625,-2.953125 -4.261719,0 -8.164062,0.984375 -11.703125,2.953125 -3.542969,1.960938 -6.351563,4.695312 -8.421875,8.203125 -2.0625,3.511719 -3.09375,7.59375 -3.09375,12.25 0,4.59375 1.03125,8.664063 3.09375,12.203125 2.070312,3.542969 4.878906,6.3125 8.421875,8.3125 3.539063,2 7.441406,3 11.703125,3 z m 0,0"
           id="path29"
           style="fill:#1a3987;fill-opacity:1" />
      </g>
    </g>
  </g>
  <g
     fill="#ffffff"
     fill-opacity="1"
     id="g35"
     style="fill:#1a3987;fill-opacity:1">
    <g
       transform="translate(238.238699, 271.30287)"
       id="g34"
       style="fill:#1a3987;fill-opacity:1">
      <g
         id="g33"
         style="fill:#1a3987;fill-opacity:1">
        <path
           d="M 9.4375 -66.40625 C 8.59375 -66.40625 7.859375 -66.710938 7.234375 -67.328125 C 6.609375 -67.953125 6.296875 -68.691406 6.296875 -69.546875 C 6.296875 -70.398438 6.609375 -71.117188 7.234375 -71.703125 C 7.859375 -72.296875 8.59375 -72.59375 9.4375 -72.59375 C 10.289062 -72.59375 11.015625 -72.296875 11.609375 -71.703125 C 12.203125 -71.117188 12.5 -70.398438 12.5 -69.546875 C 12.5 -68.691406 12.203125 -67.953125 11.609375 -67.328125 C 11.015625 -66.710938 10.289062 -66.40625 9.4375 -66.40625 Z M 7.28125 0 L 7.28125 -52.53125 L 11.609375 -52.53125 L 11.609375 0 Z M 7.28125 0 "
           id="path32"
           style="fill:#1a3987;fill-opacity:1" />
      </g>
    </g>
  </g>
  <g
     fill="#ffffff"
     fill-opacity="1"
     id="g38"
     style="fill:#1a3987;fill-opacity:1">
    <g
       transform="translate(257.0278,271.30287)"
       id="g37"
       style="fill:#1a3987;fill-opacity:1">
      <g
         id="g36"
         style="fill:#1a3987;fill-opacity:1">
        <path
           d="m 32.359375,1.1875 c -5.117187,0 -9.742187,-1.1640625 -13.875,-3.484375 -4.125,-2.332031 -7.417969,-5.566406 -9.875,-9.703125 -2.460937,-4.132812 -3.6875,-8.890625 -3.6875,-14.265625 0,-5.375 1.226563,-10.109375 3.6875,-14.203125 2.457031,-4.101562 5.75,-7.316406 9.875,-9.640625 4.132813,-2.332031 8.757813,-3.5 13.875,-3.5 5.113281,0 9.738281,1.167969 13.875,3.5 4.132813,2.324219 7.429687,5.539063 9.890625,9.640625 2.457031,4.09375 3.6875,8.828125 3.6875,14.203125 0,5.375 -1.230469,10.132813 -3.6875,14.265625 -2.460938,4.136719 -5.757812,7.371094 -9.890625,9.703125 -4.136719,2.3203125 -8.761719,3.484375 -13.875,3.484375 z m 0,-3.9375 c 4.332031,0 8.253906,-1 11.765625,-3 3.507812,-2 6.296875,-4.769531 8.359375,-8.3125 2.0625,-3.539062 3.09375,-7.609375 3.09375,-12.203125 0,-4.65625 -1.03125,-8.738281 -3.09375,-12.25 -2.0625,-3.507813 -4.851563,-6.242187 -8.359375,-8.203125 -3.511719,-1.96875 -7.433594,-2.953125 -11.765625,-2.953125 -4.261719,0 -8.164063,0.984375 -11.703125,2.953125 -3.542969,1.960938 -6.34375,4.695312 -8.40625,8.203125 -2.0625,3.511719 -3.09375,7.59375 -3.09375,12.25 0,4.59375 1.03125,8.664063 3.09375,12.203125 2.0625,3.542969 4.863281,6.3125 8.40625,8.3125 3.539062,2 7.441406,3 11.703125,3 z m 0,0"
           id="path35"
           style="fill:#1a3987;fill-opacity:1" />
      </g>
    </g>
  </g>
  <g
     fill="#ffffff"
     fill-opacity="1"
     id="g41"
     style="fill:#1a3987;fill-opacity:1">
    <g
       transform="translate(321.75676,271.30287)"
       id="g40"
       style="fill:#1a3987;fill-opacity:1">
      <g
         id="g39"
         style="fill:#1a3987;fill-opacity:1">
        <path
           d="M 7.671875,21.734375 V -52.53125 H 9.9375 l 1.578125,13.078125 H 12 c 2.289062,-4.394531 5.535156,-7.851563 9.734375,-10.375 4.195313,-2.519531 8.890625,-3.78125 14.078125,-3.78125 4.976562,0 9.5,1.167969 13.5625,3.5 4.070312,2.324219 7.304688,5.539063 9.703125,9.640625 2.394531,4.09375 3.59375,8.828125 3.59375,14.203125 0,5.375 -1.199219,10.132813 -3.59375,14.265625 C 56.679688,-7.863281 53.445312,-4.628906 49.375,-2.296875 45.3125,0.0234375 40.789062,1.1875 35.8125,1.1875 30.820312,1.1875 26.257812,-0.0078125 22.125,-2.40625 18,-4.800781 14.789062,-8.066406 12.5,-12.203125 h -0.59375 v 33.9375 z M 35.21875,-2.75 c 4.257812,0 8.144531,-1 11.65625,-3 3.507812,-2 6.296875,-4.769531 8.359375,-8.3125 2.070313,-3.539062 3.109375,-7.609375 3.109375,-12.203125 0,-4.65625 -1.039062,-8.738281 -3.109375,-12.25 -2.0625,-3.507813 -4.851563,-6.242187 -8.359375,-8.203125 -3.511719,-1.96875 -7.398438,-2.953125 -11.65625,-2.953125 -4.261719,0 -8.164062,0.984375 -11.703125,2.953125 -3.542969,1.960938 -6.351563,4.695312 -8.421875,8.203125 -2.0625,3.511719 -3.09375,7.59375 -3.09375,12.25 0,4.59375 1.03125,8.664063 3.09375,12.203125 2.070312,3.542969 4.878906,6.3125 8.421875,8.3125 3.539063,2 7.441406,3 11.703125,3 z m 0,0"
           id="path38"
           style="fill:#1a3987;fill-opacity:1" />
      </g>
    </g>
  </g>
  <g
     fill="#ffffff"
     fill-opacity="1"
     id="g44"
     style="fill:#1a3987;fill-opacity:1">
    <g
       transform="translate(443.001579, 344.742582)"
       id="g43"
       style="fill:#1a3987;fill-opacity:1">
      <g
         id="g42"
         style="fill:#1a3987;fill-opacity:1">
        <path
           d="M 12.015625 -12.578125 C 10.179688 -12.578125 8.503906 -13.007812 6.984375 -13.875 C 5.460938 -14.75 4.242188 -15.929688 3.328125 -17.421875 C 2.410156 -18.910156 1.953125 -20.601562 1.953125 -22.5 C 1.953125 -24.425781 2.410156 -26.132812 3.328125 -27.625 C 4.242188 -29.113281 5.460938 -30.289062 6.984375 -31.15625 C 8.503906 -32.03125 10.179688 -32.46875 12.015625 -32.46875 C 13.878906 -32.46875 15.585938 -32.03125 17.140625 -31.15625 C 18.691406 -30.289062 19.925781 -29.113281 20.84375 -27.625 C 21.757812 -26.132812 22.21875 -24.425781 22.21875 -22.5 C 22.21875 -20.601562 21.757812 -18.910156 20.84375 -17.421875 C 19.925781 -15.929688 18.691406 -14.75 17.140625 -13.875 C 15.585938 -13.007812 13.878906 -12.578125 12.015625 -12.578125 Z M 12.015625 -13.921875 C 13.691406 -13.921875 15.171875 -14.285156 16.453125 -15.015625 C 17.742188 -15.742188 18.765625 -16.753906 19.515625 -18.046875 C 20.265625 -19.335938 20.640625 -20.820312 20.640625 -22.5 C 20.640625 -24.207031 20.265625 -25.703125 19.515625 -26.984375 C 18.765625 -28.273438 17.742188 -29.285156 16.453125 -30.015625 C 15.171875 -30.742188 13.691406 -31.109375 12.015625 -31.109375 C 10.398438 -31.109375 8.957031 -30.742188 7.6875 -30.015625 C 6.414062 -29.285156 5.414062 -28.273438 4.6875 -26.984375 C 3.957031 -25.703125 3.59375 -24.207031 3.59375 -22.5 C 3.59375 -20.820312 3.957031 -19.335938 4.6875 -18.046875 C 5.414062 -16.753906 6.414062 -15.742188 7.6875 -15.015625 C 8.957031 -14.285156 10.398438 -13.921875 12.015625 -13.921875 Z M 8.578125 -16.859375 L 8.578125 -28.3125 L 11.546875 -28.3125 C 13.285156 -28.3125 14.539062 -27.878906 15.3125 -27.015625 C 16.09375 -26.148438 16.484375 -25.109375 16.484375 -23.890625 C 16.484375 -23.085938 16.28125 -22.351562 15.875 -21.6875 C 15.476562 -21.019531 14.875 -20.515625 14.0625 -20.171875 L 16.484375 -16.859375 L 14.671875 -16.859375 L 12.578125 -19.75 L 10.109375 -19.75 L 10.109375 -16.859375 Z M 10.109375 -20.90625 L 11.453125 -20.90625 C 12.765625 -20.90625 13.664062 -21.1875 14.15625 -21.75 C 14.65625 -22.3125 14.90625 -23.023438 14.90625 -23.890625 C 14.90625 -24.796875 14.65625 -25.550781 14.15625 -26.15625 C 13.664062 -26.757812 12.765625 -27.0625 11.453125 -27.0625 L 10.109375 -27.0625 Z M 10.109375 -20.90625 "
           id="path41"
           style="fill:#1a3987;fill-opacity:1" />
      </g>
    </g>
  </g>
  <g
     clip-path="url(#631ef147b9)"
     id="g47"
     transform="matrix(0.99171243,0,0,0.78266731,3.840058,40.777185)"
     style="fill:#1a3987;fill-opacity:1">
    <g
       clip-path="url(#dc9e064c61)"
       id="g46"
       style="fill:#1a3987;fill-opacity:1">
      <g
         clip-path="url(#06f743e2a4)"
         id="g45"
         style="fill:#1a3987;fill-opacity:1">
        <path
           fill="#ffffff"
           d="m 380.3125,275.60156 c -0.46875,0.59766 -0.36328,1.46094 0.23047,1.92969 5.3789,4.21875 12.34765,6.11719 19.12109,5.19922 6.77344,-0.91797 12.98828,-4.59375 17.05078,-10.09375 4.625,-6.25391 6.58985,-14.91406 5.83594,-25.73438 -0.26953,-3.88672 -0.83203,-7.78906 -1.375,-11.55859 -0.66797,-4.65234 -1.35937,-9.46484 -1.49219,-14.20313 -0.1875,-6.91796 0.91016,-16.55468 7.21094,-23.15234 3.92969,-4.11328 9.71875,-6.75391 16.29688,-7.42969 5.48437,-0.5664 11.52343,0.16407 18.46484,2.23047 0.72656,0.21485 1.49219,-0.19922 1.70703,-0.92578 0.0312,-0.10547 0.0508,-0.21094 0.0586,-0.32031 0.0312,-0.61719 -0.35937,-1.20313 -0.98046,-1.38672 -7.29688,-2.17188 -13.6836,-2.93359 -19.53125,-2.33203 -7.23047,0.74609 -13.6211,3.67969 -18,8.26562 -6.95704,7.28125 -8.17579,17.6836 -7.97266,25.12891 0.13281,4.89453 0.83984,9.78516 1.51953,14.51562 0.53516,3.72266 1.08984,7.57032 1.35156,11.35938 0.70703,10.14844 -1.07812,18.19531 -5.30078,23.91016 -3.57031,4.83203 -9.25781,8.19921 -15.21094,9.0039 -5.95312,0.80469 -12.32812,-0.92969 -17.05468,-4.63672 -0.59766,-0.46875 -1.46094,-0.36718 -1.92969,0.23047 z m 0,0"
           fill-opacity="1"
           fill-rule="nonzero"
           id="path44"
           style="fill:#1a3987;fill-opacity:1" />
      </g>
    </g>
  </g>
</svg>
