<?xml version="1.0" encoding="UTF-8" standalone="no"?>
<svg
   width="708.75"
   height="285"
   viewBox="0 0 708.75 285"
   version="1.2"
   id="svg39"
   sodipodi:docname="osaango-black.svg"
   inkscape:version="1.4.2 (f4327f4, 2025-05-13)"
   xmlns:inkscape="http://www.inkscape.org/namespaces/inkscape"
   xmlns:sodipodi="http://sodipodi.sourceforge.net/DTD/sodipodi-0.dtd"
   xmlns:xlink="http://www.w3.org/1999/xlink"
   xmlns="http://www.w3.org/2000/svg"
   xmlns:svg="http://www.w3.org/2000/svg">
  <sodipodi:namedview
     id="namedview1"
     pagecolor="#ffffff"
     bordercolor="#000000"
     borderopacity="0.25"
     inkscape:showpageshadow="2"
     inkscape:pageopacity="0.0"
     inkscape:pagecheckerboard="0"
     inkscape:deskcolor="#d1d1d1"
     inkscape:zoom="5.2035273"
     inkscape:cx="458.72729"
     inkscape:cy="142.49949"
     inkscape:window-width="3840"
     inkscape:window-height="2054"
     inkscape:window-x="-11"
     inkscape:window-y="-11"
     inkscape:window-maximized="1"
     inkscape:current-layer="g39" />
  <defs
     id="defs19">
    <clipPath
       id="d">
      <path
         d="M0 67h93v93H0Zm0 0"
         id="path1" />
    </clipPath>
    <clipPath
       id="e">
      <path
         d="M46.3 67.414q-2.254 0-4.503.223a46.3 46.3 0 0 0-8.832 1.754 47 47 0 0 0-4.246 1.515 46.2 46.2 0 0 0-11.566 6.918 45 45 0 0 0-3.34 3.024 45 45 0 0 0-3.028 3.336 45 45 0 0 0-2.687 3.613 47 47 0 0 0-2.32 3.86 46 46 0 0 0-1.926 4.07 45.5 45.5 0 0 0-2.613 8.602 45.4 45.4 0 0 0-.883 8.945 45.4 45.4 0 0 0 .882 8.949 45 45 0 0 0 1.094 4.363 46.4 46.4 0 0 0 3.445 8.309 47 47 0 0 0 2.32 3.859 45 45 0 0 0 2.688 3.613 45 45 0 0 0 3.028 3.336 45 45 0 0 0 3.34 3.024 46.2 46.2 0 0 0 11.566 6.918 47 47 0 0 0 4.246 1.515 46.3 46.3 0 0 0 13.336 1.977q2.261 0 4.504-.223 2.248-.221 4.46-.66a46 46 0 0 0 4.376-1.094 45.6 45.6 0 0 0 8.32-3.441 45 45 0 0 0 3.867-2.313 46 46 0 0 0 3.625-2.68 46 46 0 0 0 6.367-6.359 45.4 45.4 0 0 0 5.004-7.473 46 46 0 0 0 1.93-4.07 46 46 0 0 0 1.52-4.238q.654-2.155 1.093-4.363a46 46 0 0 0 .664-4.453 47 47 0 0 0 .219-4.497q.001-2.249-.227-4.492a46 46 0 0 0-.664-4.449 45.4 45.4 0 0 0-2.62-8.598 45 45 0 0 0-1.93-4.066 45.4 45.4 0 0 0-5.004-7.473 46.1 46.1 0 0 0-9.989-9.035 47 47 0 0 0-3.863-2.316 46 46 0 0 0-4.074-1.922 45 45 0 0 0-4.246-1.52 45 45 0 0 0-4.371-1.097 46.3 46.3 0 0 0-8.961-.89m0 74.059a28.5 28.5 0 0 1-5.51-.543 28 28 0 0 1-5.3-1.605 28 28 0 0 1-2.506-1.18 28 28 0 0 1-2.379-1.426 28 28 0 0 1-2.226-1.649 27 27 0 0 1-2.055-1.855 27 27 0 0 1-1.863-2.05 28.1 28.1 0 0 1-4.262-7.098 28 28 0 0 1-.937-2.606 28.2 28.2 0 0 1 0-16.371q.406-1.326.933-2.606a28.2 28.2 0 0 1 6.125-9.148 29 29 0 0 1 2.055-1.86 28.1 28.1 0 0 1 7.113-4.254 29 29 0 0 1 2.61-.933 29 29 0 0 1 2.691-.672c.906-.18 1.82-.312 2.742-.406.918-.09 1.844-.133 2.77-.133q1.387-.001 2.77.133 1.376.14 2.742.406 1.358.272 2.687.672 1.331.405 2.61.934a28.2 28.2 0 0 1 9.167 6.113 27.7 27.7 0 0 1 3.512 4.273q.775 1.151 1.426 2.371a28 28 0 0 1 2.12 5.11q.404 1.324.673 2.683a28.2 28.2 0 0 1 .406 8.266 29 29 0 0 1-.41 2.734q-.27 1.36-.676 2.684t-.933 2.602q-.532 1.282-1.188 2.5a28 28 0 0 1-4.937 6.644 29 29 0 0 1-2.055 1.86 28.5 28.5 0 0 1-7.105 4.254 28.4 28.4 0 0 1-5.297 1.609q-1.36.27-2.743.406-1.381.14-2.77.14m0 0"
         id="path2" />
    </clipPath>
    <clipPath
       id="f">
      <path
         d="M616 67h92.5v93H616Zm0 0"
         id="path3" />
    </clipPath>
    <clipPath
       id="g">
      <path
         d="M662.453 67.414a46.5 46.5 0 0 0-8.965.883 46 46 0 0 0-4.375 1.094 46 46 0 0 0-8.32 3.441 45 45 0 0 0-3.867 2.313 46 46 0 0 0-3.625 2.68 46 46 0 0 0-6.367 6.359 45.4 45.4 0 0 0-5.004 7.473 46 46 0 0 0-1.93 4.07 45.5 45.5 0 0 0-2.613 8.602 46 46 0 0 0-.664 4.452 47 47 0 0 0-.22 4.492q.001 2.257.22 4.497a46 46 0 0 0 1.757 8.816 46 46 0 0 0 1.52 4.238 45 45 0 0 0 1.93 4.07 45.4 45.4 0 0 0 5.004 7.473 45 45 0 0 0 3.027 3.336 45 45 0 0 0 3.34 3.024 45.6 45.6 0 0 0 7.492 4.992 45 45 0 0 0 4.074 1.926 47 47 0 0 0 4.246 1.515q2.162.655 4.375 1.094a46.3 46.3 0 0 0 8.965.883q2.256 0 4.5-.223c1.5-.148 2.984-.367 4.461-.66a46 46 0 0 0 4.375-1.094 47 47 0 0 0 4.246-1.515 45 45 0 0 0 4.074-1.926 45.6 45.6 0 0 0 7.493-4.992 45 45 0 0 0 3.34-3.024 45 45 0 0 0 3.027-3.336 45.4 45.4 0 0 0 5.004-7.473 45 45 0 0 0 1.93-4.07 46 46 0 0 0 1.519-4.238q.654-2.155 1.094-4.363a46 46 0 0 0 .664-4.453q.217-2.24.218-4.497a45.5 45.5 0 0 0-.89-8.941 45.4 45.4 0 0 0-2.621-8.598 46 46 0 0 0-1.926-4.066 47 47 0 0 0-2.32-3.86 46 46 0 0 0-2.688-3.613 45 45 0 0 0-3.027-3.332 45 45 0 0 0-3.34-3.023 47 47 0 0 0-3.617-2.68 45 45 0 0 0-3.867-2.312 45 45 0 0 0-4.075-1.926 46 46 0 0 0-4.242-1.52 47 47 0 0 0-4.37-1.097 46.3 46.3 0 0 0-8.962-.89m0 74.059a28.5 28.5 0 0 1-5.512-.543c-.91-.18-1.804-.403-2.691-.672a27 27 0 0 1-2.61-.934 28 28 0 0 1-2.507-1.18q-1.225-.654-2.38-1.425a28 28 0 0 1-2.226-1.649 29 29 0 0 1-2.054-1.855 29 29 0 0 1-1.864-2.05 28.4 28.4 0 0 1-4.261-7.099 28 28 0 0 1-.934-2.605 28 28 0 0 1-.672-2.684 28 28 0 0 1-.41-2.738q-.134-1.377-.133-2.766-.001-1.383.133-2.761c.094-.922.227-1.832.406-2.739a28.7 28.7 0 0 1 1.61-5.289c.355-.855.75-1.687 1.183-2.504.438-.812.914-1.605 1.426-2.37a29 29 0 0 1 1.652-2.223 27 27 0 0 1 1.864-2.051 28 28 0 0 1 4.28-3.508 28 28 0 0 1 2.38-1.422 29 29 0 0 1 2.504-1.183 29 29 0 0 1 2.613-.934 29 29 0 0 1 2.688-.672c.906-.18 1.82-.312 2.742-.406q1.381-.134 2.77-.133 1.387-.001 2.769.133 1.383.14 2.742.406 1.36.272 2.691.672 1.325.405 2.61.934a28.23 28.23 0 0 1 15.289 15.261q.534 1.28.933 2.606.405 1.324.676 2.683a28 28 0 0 1 .543 5.5 28.4 28.4 0 0 1-.55 5.5q-.271 1.36-.676 2.684-.4 1.324-.934 2.602-.532 1.282-1.188 2.5-.651 1.222-1.425 2.375a28 28 0 0 1-3.512 4.27 28.7 28.7 0 0 1-4.277 3.508q-1.155.765-2.38 1.42-1.22.651-2.503 1.184a29 29 0 0 1-5.297 1.61q-1.359.27-2.742.406-1.377.14-2.766.14m0 0"
         id="path4" />
    </clipPath>
    <clipPath
       id="h">
      <path
         d="M191 67h93v93h-93zm0 0"
         id="path5" />
    </clipPath>
    <clipPath
       id="i">
      <path
         d="M237.785 67.414a46 46 0 0 0-4.515.207q-2.254.21-4.473.645-2.224.432-4.39 1.082a46.3 46.3 0 0 0-8.352 3.422 46 46 0 0 0-7.524 4.992 45.5 45.5 0 0 0-6.398 6.36 46 46 0 0 0-8.492 15.808 46 46 0 0 0-1.098 4.375 45.6 45.6 0 0 0 0 17.938q.44 2.215 1.098 4.378a45.7 45.7 0 0 0 5.797 12.187 47 47 0 0 0 2.695 3.622 47 47 0 0 0 3.043 3.336 46 46 0 0 0 6.992 5.703 47 47 0 0 0 3.887 2.308 45 45 0 0 0 4.09 1.918 46 46 0 0 0 4.261 1.508c1.446.434 2.906.793 4.39 1.082q2.22.434 4.474.645 2.251.212 4.515.203c4.078 0 18.09-.961 28.25-13.246v13.246h17.695v-45.86a46.3 46.3 0 0 0-.89-8.941 47 47 0 0 0-1.098-4.363 46.3 46.3 0 0 0-3.453-8.301 45.4 45.4 0 0 0-5.004-7.473 46.1 46.1 0 0 0-9.984-9.035 47 47 0 0 0-3.867-2.312 45 45 0 0 0-4.075-1.926 46 46 0 0 0-4.242-1.52 47 47 0 0 0-4.37-1.097 46.3 46.3 0 0 0-8.962-.89m0 74.059a28.5 28.5 0 0 1-5.512-.543c-.91-.18-1.804-.403-2.691-.672a28 28 0 0 1-2.61-.934 28 28 0 0 1-2.507-1.18q-1.225-.654-2.38-1.425a28 28 0 0 1-2.226-1.649 29 29 0 0 1-2.054-1.855 29 29 0 0 1-1.864-2.05 28.4 28.4 0 0 1-4.261-7.099 30 30 0 0 1-.934-2.605 28 28 0 0 1-.672-2.684 28 28 0 0 1-.41-2.738q-.134-1.377-.133-2.766-.001-1.383.133-2.761c.094-.922.227-1.832.406-2.739a28.7 28.7 0 0 1 1.61-5.289c.355-.855.75-1.687 1.183-2.504.438-.812.914-1.605 1.426-2.37a29 29 0 0 1 1.652-2.223 27 27 0 0 1 1.864-2.051 28 28 0 0 1 4.28-3.508 28 28 0 0 1 2.38-1.422 29 29 0 0 1 2.504-1.183 29 29 0 0 1 2.613-.934 29 29 0 0 1 2.688-.672c.906-.18 1.824-.312 2.742-.406q1.381-.134 2.77-.133 1.387-.001 2.769.133 1.383.14 2.742.406 1.363.272 2.691.672 1.325.405 2.61.934a28.23 28.23 0 0 1 12.68 10.386q.768 1.151 1.425 2.371a28 28 0 0 1 1.184 2.504q.534 1.28.933 2.606.406 1.324.676 2.683a28 28 0 0 1 .543 5.5q0 1.389-.14 2.766-.136 1.376-.407 2.734-.276 1.36-.676 2.684-.404 1.324-.937 2.602-.532 1.282-1.187 2.5-.653 1.222-1.422 2.375a28.7 28.7 0 0 1-3.516 4.27 28 28 0 0 1-6.656 4.929q-1.22.65-2.504 1.183a29 29 0 0 1-5.297 1.61q-1.36.27-2.738.406-1.382.14-2.77.14m0 0"
         id="path6" />
    </clipPath>
    <clipPath
       id="j">
      <path
         d="M295 67h93v93h-93zm0 0"
         id="path7" />
    </clipPath>
    <clipPath
       id="k">
      <path
         d="M341.684 67.414q-2.25.011-4.489.238a46.1 46.1 0 0 0-13.039 3.305 46 46 0 0 0-4.058 1.934 45.6 45.6 0 0 0-7.457 5q-1.74 1.43-3.329 3.02a47 47 0 0 0-3.015 3.331 46 46 0 0 0-2.672 3.61 46 46 0 0 0-2.309 3.855 47 47 0 0 0-1.918 4.059 46 46 0 0 0-2.602 8.586 45 45 0 0 0-.655 4.437 45.3 45.3 0 0 0 0 8.969q.216 2.238.656 4.441a46 46 0 0 0 1.09 4.356 45 45 0 0 0 1.511 4.226 47 47 0 0 0 1.918 4.063 46.3 46.3 0 0 0 4.98 7.46 46 46 0 0 0 9.95 9.04 46 46 0 0 0 3.852 2.316q1.982 1.068 4.058 1.93a47 47 0 0 0 4.23 1.527q2.157.659 4.36 1.106a46 46 0 0 0 4.45.675q2.237.228 4.488.235c4.082 0 18.093-.961 28.253-13.246v13.246h17.696v-45.86q-.002-2.249-.227-4.492a46 46 0 0 0-.664-4.449 47 47 0 0 0-1.097-4.363 45 45 0 0 0-1.524-4.235 45 45 0 0 0-1.93-4.066 45.4 45.4 0 0 0-5.004-7.473 46 46 0 0 0-6.367-6.355 47 47 0 0 0-3.62-2.68 46 46 0 0 0-3.864-2.312 46 46 0 0 0-4.074-1.926 45 45 0 0 0-4.246-1.52 45 45 0 0 0-4.371-1.097 46.3 46.3 0 0 0-8.961-.89m0 17.664c.925 0 1.851.043 2.77.137q1.38.133 2.745.402c.906.184 1.805.406 2.688.676q1.33.4 2.613.93 1.278.533 2.504 1.183 1.225.656 2.379 1.422 1.155.772 2.226 1.649a27 27 0 0 1 2.055 1.859 27 27 0 0 1 1.863 2.05 29 29 0 0 1 1.653 2.223q.771 1.15 1.425 2.375a27.6 27.6 0 0 1 2.122 5.106 28.2 28.2 0 0 1 0 16.371q-.405 1.323-.934 2.605-.533 1.28-1.188 2.5a28.4 28.4 0 0 1-3.074 4.598q-.884 1.072-1.863 2.05-.983.978-2.055 1.856a28 28 0 0 1-2.226 1.649 28 28 0 0 1-4.887 2.61 28 28 0 0 1-2.61.929q-1.328.403-2.687.672a28.4 28.4 0 0 1-8.281.406 27 27 0 0 1-2.742-.406q-1.363-.27-2.692-.672a28 28 0 0 1-5.117-2.113q-1.225-.655-2.379-1.422a29 29 0 0 1-2.226-1.649 28 28 0 0 1-3.914-3.91 28 28 0 0 1-3.078-4.598 28 28 0 0 1-1.188-2.5 29 29 0 0 1-.934-2.605 28.2 28.2 0 0 1-1.078-10.95q.14-1.374.41-2.734.274-1.359.676-2.683a28.4 28.4 0 0 1 3.547-7.477 28.7 28.7 0 0 1 3.512-4.27 29 29 0 0 1 2.054-1.859A29 29 0 0 1 326 89.84a28 28 0 0 1 2.375-1.422 27 27 0 0 1 2.504-1.184 27 27 0 0 1 2.61-.933q1.328-.405 2.687-.676 1.359-.27 2.742-.41c.918-.09 1.844-.137 2.766-.137m0 0"
         id="path8" />
    </clipPath>
    <clipPath
       id="l">
      <path
         d="M101 67h81v93h-81zm0 0"
         id="path9" />
    </clipPath>
    <clipPath
       id="m">
      <path
         d="m148.39 106.2-2.5-.41c-7.027-1.067-12.035-2.177-15.312-3.392-4.973-1.832-6.015-5.351-6.015-7.976 0-2.285.93-5.531 5.382-8.016 3.215-1.804 7.797-2.683 14.008-2.683a56.3 56.3 0 0 1 12.242 1.273 56.2 56.2 0 0 1 11.676 3.887l2.024.933 7.28-15.523-2.066-.934a60.5 60.5 0 0 0-11.941-3.832 89 89 0 0 0-19.215-2.113c-11.629 0-32.156 2.344-38.976 18.035-4.274 9.82-1.711 21.34 6.093 27.395 7.434 5.777 17.715 7.332 26.778 8.703l.46.074c6.684.828 11.54 1.828 14.848 3.047 4.973 1.844 6.02 5.168 6.02 7.637 0 6.984-6.465 10.523-19.211 10.523a68.2 68.2 0 0 1-15.125-1.86 68.4 68.4 0 0 1-14.34-5.152l-2.066-1.046-7.286 15.652 1.915.98a66 66 0 0 0 13.671 4.946 88.7 88.7 0 0 0 22.184 2.785c8.832 0 16.55-1.211 22.937-3.59 8.125-3.031 14.942-9.441 17.793-16.73q.851-2.111 1.227-4.356c.254-1.492.344-3 .266-4.512a21 21 0 0 0-2.363-8.68C173.16 110.2 160 108.076 148.39 106.2m0 0"
         id="path10" />
    </clipPath>
    <clipPath
       id="n">
      <path
         d="M406 67h93v93h-93zm0 0"
         id="path11" />
    </clipPath>
    <clipPath
       id="o">
      <path
         d="M452.48 67.414a46.3 46.3 0 0 0-13.332 1.988 46 46 0 0 0-4.242 1.52 46 46 0 0 0-4.074 1.926 47 47 0 0 0-3.863 2.312 48 48 0 0 0-3.621 2.68 46 46 0 0 0-6.368 6.355 47 47 0 0 0-2.683 3.614 47 47 0 0 0-2.32 3.859 47 47 0 0 0-1.93 4.066 46 46 0 0 0-1.52 4.235 46.3 46.3 0 0 0-1.766 8.813 46 46 0 0 0-.222 4.491v45.86h17.695v-45.86a28 28 0 0 1 .121-2.773 28.3 28.3 0 0 1 1.06-5.441q.397-1.332.925-2.618a28.4 28.4 0 0 1 4.254-7.132 27 27 0 0 1 1.863-2.063 28 28 0 0 1 2.055-1.871 28.7 28.7 0 0 1 4.613-3.09q1.228-.655 2.516-1.187 1.281-.538 2.617-.942c.887-.27 1.785-.492 2.695-.676a28.4 28.4 0 0 1 5.531-.542 28.5 28.5 0 0 1 8.227 1.219q1.33.403 2.617.94 1.285.532 2.512 1.188a28 28 0 0 1 2.383 1.434 28 28 0 0 1 4.289 3.527 28 28 0 0 1 1.86 2.063 28 28 0 0 1 3.074 4.617 28.3 28.3 0 0 1 2.105 5.133q.399 1.33.664 2.695a28.3 28.3 0 0 1 .52 5.52v45.859h17.69v-45.86q.002-2.249-.226-4.492a45 45 0 0 0-.664-4.449 45.4 45.4 0 0 0-2.62-8.598 46 46 0 0 0-1.927-4.066 47 47 0 0 0-2.32-3.86 46.3 46.3 0 0 0-5.711-6.945 47 47 0 0 0-3.34-3.02 47 47 0 0 0-3.62-2.683 46 46 0 0 0-3.868-2.312 45 45 0 0 0-4.07-1.926 46.4 46.4 0 0 0-8.617-2.617 46.3 46.3 0 0 0-8.962-.89m0 0"
         id="path12" />
    </clipPath>
    <clipPath
       id="p">
      <path
         d="M592 45.703h24V70h-24zm0 0"
         id="path13" />
    </clipPath>
    <clipPath
       id="q">
      <path
         d="M610.55 47.79a12 12 0 0 0-2.01-1.118 12 12 0 0 0-2.188-.703 11.8 11.8 0 0 0-4.579-.074q-1.137.204-2.21.632-1.08.422-2.047 1.047c-.649.418-1.25.89-1.805 1.426a12 12 0 0 0-1.484 1.754 11.6 11.6 0 0 0-1.825 4.191 11.8 11.8 0 0 0-.074 4.567c.14.758.348 1.492.633 2.21q.423 1.073 1.05 2.04a12 12 0 0 0 1.43 1.8q.805.827 1.754 1.485a11.6 11.6 0 0 0 2.012 1.113q1.061.458 2.191.703a11.8 11.8 0 0 0 4.575.075 11.6 11.6 0 0 0 2.215-.633 11.5 11.5 0 0 0 2.042-1.047q.973-.627 1.805-1.43a12 12 0 0 0 1.485-1.75q.667-.944 1.128-2.004a11.6 11.6 0 0 0 .715-2.183 11.6 11.6 0 0 0 .266-2.286q.024-1.156-.188-2.289a11.4 11.4 0 0 0-.632-2.21 12 12 0 0 0-1.055-2.044 12 12 0 0 0-1.441-1.796 11.6 11.6 0 0 0-1.762-1.477m0 0"
         id="path14" />
    </clipPath>
    <clipPath
       id="r">
      <path
         d="M512 66h97v173.016h-97zm0 0"
         id="path15" />
    </clipPath>
    <clipPath
       id="s">
      <path
         d="m584.441 153.32-36.726-21.746-2.266-1.363c-7.648-4.598-12.21-12.422-12.21-20.934 0-13.66 11.73-24.777 26.148-24.777 14.422 0 26.148 11.117 26.148 24.781 0 9.223-5.312 17.434-13.734 21.73l17.21 9.946c9.563-8.012 15.208-19.422 15.208-31.676 0-23.43-20.114-42.488-44.832-42.488-24.719 0-44.836 19.055-44.836 42.488 0 15.2 8.691 29.34 22.601 36.871l37.453 22.11 1.797 1.082c8.7 5.23 13.895 14.129 13.895 23.812 0 15.547-13.352 28.196-29.754 28.196-16.406 0-29.75-12.645-29.75-28.196 0-10.988 7.004-21.039 17.52-25.582l-17.704-10.304c-11.59 8.68-18.449 21.793-18.449 35.886 0 25.29 21.703 45.86 48.383 45.86 26.676 0 48.387-20.57 48.387-45.86 0-16.441-9.371-31.664-24.489-39.836m0 0"
         id="path16" />
    </clipPath>
    <linearGradient
       id="b">
      <stop
         style="stop-color:#1f2d2a;stop-opacity:1"
         offset="0"
         id="stop16" />
      <stop
         style="stop-color:#1f2d2a;stop-opacity:0"
         offset="1"
         id="stop17" />
    </linearGradient>
    <linearGradient
       id="a">
      <stop
         style="stop-color:#000000;stop-opacity:1;"
         offset="0"
         id="stop18" />
      <stop
         style="stop-color:#1f2d2a;stop-opacity:1"
         offset="1"
         id="stop19" />
    </linearGradient>
    <linearGradient
       xlink:href="#a"
       id="c"
       x1=".355"
       y1="142.361"
       x2="708.398"
       y2="142.361"
       gradientUnits="userSpaceOnUse" />
    <linearGradient
       xlink:href="#b"
       id="t"
       x1="192.752"
       y1="113.6"
       x2="283.141"
       y2="113.6"
       gradientUnits="userSpaceOnUse" />
  </defs>
  <g
     style="fill:#000000;fill-opacity:1;stroke:url(#c);stroke-opacity:1"
     id="g39">
    <g
       clip-path="url(#d)"
       style="fill:#000000;fill-opacity:1;stroke:#000000;stroke-opacity:1"
       id="g20">
      <g
         clip-path="url(#e)"
         style="fill:#000000;fill-opacity:1;stroke:#000000;stroke-opacity:1"
         id="g19">
        <path
           style="fill:#000000;fill-opacity:1;fill-rule:nonzero;stroke:#000000;stroke-opacity:1"
           d="M.355 67.414v91.723H92.25V67.414Zm0 0"
           id="path19" />
      </g>
    </g>
    <g
       clip-path="url(#f)"
       style="fill:#000000;fill-opacity:1;stroke:#000000;stroke-opacity:1"
       id="g22">
      <g
         clip-path="url(#g)"
         style="fill:#000000;fill-opacity:1;stroke:#000000;stroke-opacity:1"
         id="g21">
        <path
           style="fill:#000000;fill-opacity:1;fill-rule:nonzero;stroke:#000000;stroke-opacity:1"
           d="M616.504 67.414v91.723h91.894V67.414Zm0 0"
           id="path20" />
      </g>
    </g>
    <g
       clip-path="url(#h)"
       style="fill:#000000;fill-opacity:1;stroke:#000000;stroke-opacity:1"
       id="g24">
      <g
         clip-path="url(#i)"
         style="fill:#000000;fill-opacity:1;stroke:#000000;stroke-opacity:1"
         id="g23">
        <path
           style="fill:#000000;fill-opacity:1;fill-rule:nonzero;stroke:#000000;stroke-opacity:1"
           d="M191.652 67.41v91.73h92.078V67.41Zm0 0"
           id="path22" />
      </g>
    </g>
    <g
       clip-path="url(#j)"
       style="fill:#000000;fill-opacity:1;stroke:#004d50;stroke-opacity:1"
       id="g26">
      <g
         clip-path="url(#k)"
         style="fill:#000000;fill-opacity:1;stroke:#004d50;stroke-opacity:1"
         id="g25">
        <path
           style="fill:#000000;fill-opacity:1;fill-rule:nonzero;stroke:#004d50;stroke-opacity:1"
           d="M295.918 67.414v91.719h91.715V67.414Zm0 0"
           id="path24" />
      </g>
    </g>
    <g
       clip-path="url(#l)"
       style="fill:#000000;fill-opacity:1;stroke:#004d50;stroke-opacity:1"
       id="g28">
      <g
         clip-path="url(#m)"
         style="fill:#000000;fill-opacity:1;stroke:#004d50;stroke-opacity:1"
         id="g27">
        <path
           style="fill:#000000;fill-opacity:1;fill-rule:nonzero;stroke:#004d50;stroke-opacity:1"
           d="M100.703 67.414v91.727h80.516V67.414Zm0 0"
           id="path26" />
      </g>
    </g>
    <g
       clip-path="url(#n)"
       style="fill:#000000;fill-opacity:1;stroke:#000000;stroke-opacity:1"
       id="g30">
      <g
         clip-path="url(#o)"
         style="fill:#000000;fill-opacity:1;stroke:#000000;stroke-opacity:1"
         id="g29">
        <path
           style="fill:#000000;fill-opacity:1;fill-rule:nonzero;stroke:#000000;stroke-opacity:1"
           d="M406.54 67.414v91.719h91.886V67.414Zm0 0"
           id="path28" />
      </g>
    </g>
    <g
       clip-path="url(#p)"
       style="fill:#000000;fill-opacity:1;stroke:#000000;stroke-opacity:1"
       id="g32">
      <g
         clip-path="url(#q)"
         style="fill:#000000;fill-opacity:1;stroke:#000000;stroke-opacity:1"
         id="g31">
        <path
           style="fill:#000000;fill-opacity:1;fill-rule:nonzero;stroke:#000000;stroke-opacity:1"
           d="M592.129 45.703v23.434h23.516V45.703Zm0 0"
           id="path30" />
      </g>
    </g>
    <g
       clip-path="url(#r)"
       style="fill:#000000;fill-opacity:1;stroke:#000000;stroke-opacity:1"
       id="g34">
      <g
         clip-path="url(#s)"
         style="fill:#000000;fill-opacity:1;stroke:#000000;stroke-opacity:1"
         id="g33">
        <path
           style="fill:#000000;fill-opacity:1;fill-rule:nonzero;stroke:#000000;stroke-opacity:1"
           d="M512.16 66.793v172.223h96.77V66.793Zm0 0"
           id="path32" />
      </g>
    </g>
  </g>
</svg>
